<svg width="33" height="33" viewBox="0 0 33 33" fill="none" xmlns="http://www.w3.org/2000/svg">
<path d="M10.5382 27.3358C10.1601 27.5663 9.69113 27.2277 9.79082 26.7963L11.1717 20.82C11.2962 20.2812 11.1142 19.7176 10.6981 19.3535L6.0943 15.3249C5.76281 15.0348 5.94121 14.4888 6.38002 14.4505L12.4253 13.9221C12.9798 13.8736 13.4619 13.5221 13.6775 13.0089L16.04 7.38723C16.2116 6.97886 16.7902 6.97884 16.9619 7.3872L19.3241 13.0073C19.5398 13.5204 20.0219 13.8719 20.5763 13.9204L26.62 14.4488C27.0588 14.4871 27.2372 15.0331 26.9057 15.3232L22.302 19.3517C21.8858 19.7159 21.7038 20.2796 21.8284 20.8185L23.2104 26.7947C23.3102 27.2262 22.8413 27.5648 22.4631 27.3344L17.2814 24.1773C16.802 23.8852 16.1996 23.8852 15.7203 24.1774L10.5382 27.3358Z" fill="#C29818" stroke="#C29818"/>
</svg>
