<svg width="201" height="182" viewBox="0 0 201 182" fill="none" xmlns="http://www.w3.org/2000/svg">
<path d="M96.2991 117.715C97.6131 117.574 98.7703 117.454 99.9125 117.32C103.123 116.939 106.333 116.917 109.551 117.141C114.083 117.462 118.562 118.171 122.989 119.179C123.116 119.209 123.251 119.231 123.377 119.261C123.699 119.35 123.848 119.223 123.937 118.902C124.176 118.066 124.46 117.245 124.729 116.416C126.976 109.533 131.538 104.792 138.078 101.813C142.318 99.8796 146.738 99.245 151.344 99.5586C152.21 99.6183 153.061 99.7378 153.957 99.917C154.062 98.8344 154.189 97.7892 154.256 96.744C154.547 92.2571 155.801 88.0389 157.728 83.9999C158.19 83.0219 158.623 82.0364 158.997 81.0136C160.236 77.5868 160.154 74.1749 158.818 70.8153C158.011 68.7921 156.6 67.1795 155.04 65.7013C152.494 63.2973 149.358 62.0207 146.088 61.0128C143.378 60.1766 140.586 59.7809 137.786 59.445C135.144 59.1314 132.501 58.8029 129.85 58.5565C127.775 58.3624 125.692 58.2355 123.616 58.1758C118.868 58.0339 114.12 58.0339 109.372 58.1832C106.124 58.2803 102.884 58.5117 99.7483 59.43C97.3592 60.1318 95.0448 61.0352 93.1709 62.7523C89.8039 65.8207 88.139 69.6357 88.236 74.2123C88.3107 77.7361 89.2141 81.0883 90.2891 84.4105C90.9984 86.6204 91.8495 88.778 92.3422 91.0551C92.6856 92.6527 92.9992 94.2579 93.0813 95.8929C93.0963 96.1542 93.0963 96.423 93.0739 96.6843C93.044 97.0426 92.8499 97.2741 92.4766 97.3114C92.1108 97.3487 91.8346 97.1471 91.7674 96.7291C91.6703 96.1019 91.6479 95.4673 91.5509 94.8402C91.1328 92.0928 90.4011 89.4275 89.4754 86.8145C88.4003 83.7759 87.4745 80.7 86.9669 77.5121C86.2427 72.9804 86.7951 68.6801 89.3858 64.7681C91.0133 62.3044 93.156 60.4752 95.8437 59.2359C98.8599 57.8473 102.033 57.1604 105.318 56.8991C111.664 56.3915 118.025 56.4885 124.378 56.6826C130.291 56.8618 136.151 57.6233 141.997 58.4893C145.379 58.9895 148.619 60.0348 151.688 61.5354C154.793 63.0584 157.287 65.3056 159.168 68.1874C160.99 70.9796 161.602 74.1003 161.363 77.4076C161.214 79.5727 160.527 81.581 159.646 83.5445C159.139 84.6718 158.653 85.8141 158.153 86.9489C156.682 90.2488 156.07 93.7353 155.764 97.3039C155.689 98.17 155.652 99.0435 155.57 99.9095C155.533 100.313 155.667 100.529 156.055 100.678C156.891 100.999 157.66 101.47 158.414 101.955C161.027 103.635 163.245 107.719 161.528 112.026C160.9 113.609 159.99 115.028 158.84 116.289C158.586 116.573 158.437 116.879 158.317 117.238C157.295 120.313 156.242 123.382 155.212 126.45C153.718 130.9 152.136 135.32 150.941 139.859C150.254 142.487 149.664 145.137 149.149 147.802C148.619 150.565 148.746 153.297 149.314 156.045C149.903 158.912 150.366 161.801 150.523 164.735C150.56 165.496 150.56 166.265 150.366 167.019C150.15 167.848 149.799 168.587 148.881 168.789C147.955 168.998 147.246 168.535 146.663 167.863C146.23 167.355 145.954 166.758 145.737 166.131C145.058 164.205 144.73 162.204 144.356 160.211C144.222 159.486 144.095 158.755 143.834 158.06C143.528 157.232 143.162 157.045 142.311 157.269C141.721 157.426 141.176 157.702 140.653 158.008C137.704 159.71 134.643 161.181 131.493 162.473C131.276 162.562 131.06 162.674 130.813 162.667C130.522 162.659 130.313 162.532 130.194 162.264C130.074 161.987 130.149 161.734 130.358 161.547C130.515 161.413 130.701 161.308 130.896 161.226C134.128 159.8 137.256 158.158 140.347 156.44C140.9 156.134 141.482 155.888 142.102 155.739C143.498 155.41 144.543 155.918 145.14 157.217C145.581 158.187 145.737 159.233 145.924 160.27C146.23 161.928 146.521 163.593 147.037 165.205C147.193 165.705 147.372 166.206 147.664 166.654C147.813 166.878 147.97 167.087 148.216 167.206C148.44 167.318 148.627 167.281 148.739 167.042C148.888 166.728 148.94 166.392 148.963 166.041C149.052 164.638 148.888 163.249 148.709 161.861C148.41 159.531 148.007 157.217 147.552 154.917C147.089 152.581 147.186 150.251 147.582 147.922C148.679 141.539 150.523 135.357 152.643 129.243C153.703 126.182 154.734 123.106 155.779 120.037C155.861 119.798 155.936 119.559 156.018 119.321C155.831 119.261 155.757 119.335 155.674 119.403C152.658 121.635 149.291 123.188 145.82 124.547C144.565 125.039 143.289 125.465 141.982 125.771C141.46 125.89 141.206 126.144 141.064 126.674C139.153 133.722 136.973 140.695 134.837 147.676C134.375 149.191 133.837 150.677 133.217 152.133C132.06 154.865 130.351 157.157 127.887 158.859C127.319 159.248 126.767 159.658 126.282 160.143C125.834 160.599 125.453 161.099 125.229 161.711C125.065 162.167 125.124 162.256 125.61 162.316C126.267 162.398 126.909 162.54 127.521 162.794C129.014 163.413 129.813 164.518 129.82 166.153C129.828 167.258 129.828 168.371 129.82 169.476C129.791 172.432 129.589 175.381 129.163 178.308C129.074 178.935 128.939 179.554 128.671 180.129C128.081 181.369 126.834 181.458 126.058 180.323C125.752 179.883 125.61 179.375 125.498 178.853C125.124 177.143 125.02 175.403 124.908 173.671C124.706 170.566 124.415 167.467 124.064 164.377C124.005 163.817 123.997 163.802 123.43 163.854C121.802 164.011 120.197 164.332 118.584 164.6C115.113 165.175 111.619 165.369 108.102 165.235C106.624 165.175 105.154 165.108 103.675 165.063C101.062 164.974 98.4791 164.608 95.8959 164.197C92.3049 163.63 88.7064 163.063 85.1751 162.196C81.4646 161.293 77.7765 160.278 74.1929 158.941C73.4762 158.673 73.5733 158.576 73.1925 159.322C72.0876 161.51 71.02 163.72 69.93 165.914C69.2356 167.311 68.4816 168.669 67.6753 169.998C67.2497 170.7 66.8018 171.387 66.1971 171.947C65.6595 172.447 65.0473 172.835 64.2709 172.499C63.4721 172.148 63.3003 171.447 63.3227 170.663C63.3451 169.729 63.5691 168.834 63.8677 167.96C64.8383 165.116 66.0179 162.346 67.1378 159.561C67.6081 158.389 68.0859 157.217 68.504 156.022C69.3103 153.708 69.3327 151.379 68.7728 149.012C68.168 146.496 67.302 144.062 66.5554 141.591C65.6073 138.433 64.8084 135.238 64.353 131.968C64.1589 130.557 64.032 129.138 63.9872 127.712C63.92 125.651 63.4944 123.703 62.5836 121.836C61.7773 120.179 60.9785 118.514 60.5529 116.7C60.1572 114.99 60.0527 113.273 60.2767 111.519C60.7769 107.502 63.9275 105.262 67.2049 104.926C67.6977 104.874 68.1083 104.732 68.504 104.449C72.6027 101.567 77.127 99.7154 82.0842 98.9464C84.2269 98.6104 86.3845 98.4761 88.5496 98.7224C92.4244 99.1704 95.112 101.253 96.747 104.747C97.9042 107.204 98.1655 109.802 97.9117 112.474C97.7101 114.251 97.2547 115.968 96.2991 117.715ZM141.788 124.166C142.057 124.203 142.229 124.136 142.408 124.091C143.737 123.748 145.013 123.255 146.282 122.732C150.202 121.12 153.965 119.246 156.973 116.133C158.25 114.804 159.318 113.348 160.034 111.653C161.363 108.495 160.273 104.986 157.407 103.105C156.003 102.179 154.48 101.5 152.823 101.246C150.202 100.85 147.567 100.917 144.939 101.291C142.079 101.694 139.436 102.717 136.913 104.075C132.448 106.472 129.059 109.891 127.043 114.602C125.856 117.379 125.035 120.261 124.393 123.203C123.4 127.764 122.422 132.326 121.085 136.798C120.526 138.672 119.846 140.501 118.958 142.24C116.949 146.16 113.829 148.669 109.491 149.587C107.834 149.938 106.146 150.057 104.459 150.08C99.4048 150.139 94.4028 149.676 89.4455 148.691C86.8997 148.183 84.436 147.414 82.1514 146.175C79.1875 144.562 76.9702 142.285 76.0146 138.97C75.4322 136.97 75.0739 134.909 74.9768 132.819C74.82 129.369 74.6035 125.92 74.6409 122.456C74.6409 122.284 74.7081 122.09 74.5214 121.911C74.3049 121.911 74.1705 122.09 73.9988 122.195C73.4389 122.546 72.8341 122.807 72.1697 122.912C70.4824 123.165 68.9669 122.695 67.6305 121.71C62.8673 118.216 62.4343 111.437 65.2713 107.398C65.3684 107.263 65.5475 107.159 65.4729 106.868C63.7632 107.607 62.5388 108.749 62.0237 110.541C61.5011 112.355 61.5757 114.192 61.9565 116.021C62.3223 117.797 63.0913 119.418 63.8901 121.023C64.9577 123.173 65.443 125.435 65.5027 127.809C65.5401 129.257 65.6894 130.706 65.9059 132.139C66.3837 135.297 67.1676 138.388 68.1008 141.442C68.8698 143.965 69.7806 146.444 70.3182 149.027C70.6168 150.453 70.7811 151.886 70.6243 153.35C70.4376 155.104 69.8702 156.739 69.2356 158.359C68.0859 161.278 66.9138 164.182 65.7566 167.102C65.4132 167.96 65.122 168.834 64.9503 169.744C64.8831 170.11 64.786 170.484 64.9279 170.879C65.2862 170.737 65.4281 170.469 65.6073 170.245C66.1971 169.498 66.6599 168.662 67.1303 167.841C68.5562 165.34 69.7508 162.727 71.02 160.143C71.4007 159.36 71.8039 158.591 72.2219 157.829C72.6475 157.06 73.0059 156.956 73.857 157.269C74.402 157.471 74.947 157.672 75.492 157.851C78.426 158.814 81.3825 159.681 84.3837 160.382C91.7599 162.099 99.2033 163.436 106.811 163.637C109.849 163.72 112.881 163.772 115.897 163.384C118.383 163.063 120.847 162.644 123.325 162.286C123.616 162.241 123.721 162.107 123.773 161.838C123.997 160.591 124.699 159.621 125.595 158.762C126.155 158.232 126.767 157.777 127.387 157.329C129.238 155.97 130.589 154.208 131.553 152.14C132.292 150.557 132.874 148.922 133.382 147.257C135.226 141.21 137.122 135.17 138.824 129.078C139.071 128.19 139.324 127.309 139.578 126.406C139.16 126.271 138.802 126.383 138.443 126.428C136.995 126.615 135.539 126.704 134.113 126.338C130.589 125.428 128.693 123.427 128.282 120.254C127.939 117.574 128.238 114.916 129.432 112.452C130.724 109.772 132.792 108.107 135.883 107.92C140.116 107.666 142.214 110.227 142.863 113.012C143.042 113.781 143.11 114.572 143.124 115.364C143.177 117.947 142.639 120.448 142.042 122.934C141.93 123.352 141.766 123.718 141.788 124.166ZM123.407 120.709C123.094 120.634 122.84 120.575 122.586 120.523C119.973 120.015 117.345 119.604 114.717 119.201C108.595 118.26 102.481 118.305 96.3663 119.261C96.0005 119.321 95.7466 119.455 95.5226 119.761C93.7906 122.075 91.7599 124.099 89.4156 125.801C87.5044 127.182 85.4961 128.377 83.2489 129.123C82.5919 129.34 81.92 129.452 81.2257 129.407C79.8072 129.31 79.0531 128.235 79.4563 126.868C79.5907 126.406 79.8296 125.995 80.1207 125.614C80.718 124.83 81.4347 124.181 82.2261 123.598C85.6305 121.105 89.4455 119.477 93.4994 118.395C94.246 118.193 94.6641 117.82 95.0075 117.178C96.202 114.968 96.4633 112.579 96.4185 110.123C96.3887 108.443 96.0229 106.83 95.2987 105.307C93.9996 102.582 91.954 100.805 88.9154 100.313C87.37 100.059 85.8171 100.081 84.2642 100.223C79.3667 100.656 74.8424 102.172 70.6915 104.815C70.5496 104.904 70.3704 104.956 70.3182 105.143C70.3704 105.188 70.3854 105.218 70.4078 105.225C70.5795 105.292 70.7512 105.352 70.9229 105.419C72.7819 106.128 74.29 107.301 75.3426 108.973C77.2539 112.004 77.7466 115.259 76.5148 118.656C76.1489 119.664 76.0892 120.642 76.1042 121.672C76.134 124.838 76.2833 127.996 76.3953 131.161C76.47 133.274 76.7462 135.357 77.1568 137.433C77.7914 140.65 79.628 142.972 82.3978 144.607C83.9507 145.518 85.6081 146.197 87.3476 146.66C90.543 147.504 93.7981 148.004 97.083 148.295C100.555 148.609 104.034 148.743 107.505 148.392C112.246 147.914 115.695 145.578 117.786 141.27C118.51 139.769 119.115 138.224 119.592 136.634C121.145 131.423 122.213 126.092 123.407 120.709ZM141.624 115.856C141.654 115.117 141.564 114.378 141.43 113.654C141.116 111.914 140.265 110.518 138.593 109.832C136.868 109.122 133.837 109.167 132.045 111.243C131.403 111.989 130.851 112.78 130.507 113.706C129.813 115.535 129.574 117.447 129.671 119.373C129.82 122.352 131.418 124.323 134.875 124.995C136.487 125.308 138.07 125.002 139.66 124.778C139.981 124.733 140.086 124.517 140.153 124.24C140.31 123.628 140.474 123.016 140.616 122.404C141.139 120.246 141.564 118.081 141.624 115.856ZM75.6338 115.199C75.6263 113.423 75.2083 111.862 74.4094 110.399C73.2448 108.286 71.4978 106.98 69.1162 106.509C68.5637 106.397 68.1755 106.532 67.7649 106.912C65.2862 109.219 64.6442 112.094 65.2564 115.296C65.6595 117.409 66.7421 119.164 68.4891 120.478C69.2506 121.045 70.1166 121.381 71.0424 121.456C72.6475 121.59 73.7524 120.754 74.5139 119.418C75.2605 118.074 75.5741 116.61 75.6338 115.199ZM93.2306 120.112C93.1336 120.037 93.0291 120.06 92.932 120.089C89.3186 121.172 85.9217 122.703 82.8831 124.965C82.3306 125.375 81.8379 125.846 81.4049 126.383C81.2033 126.63 81.0316 126.898 80.9196 127.197C80.7628 127.645 80.8822 127.846 81.3526 127.906C81.5616 127.929 81.7707 127.906 81.9797 127.876C82.6666 127.787 83.3086 127.533 83.9358 127.257C87.4895 125.674 90.4907 123.359 93.0515 120.44C93.1261 120.343 93.2232 120.254 93.2306 120.112ZM127.297 179.248C127.581 178.681 127.611 178.106 127.693 177.539C128.066 174.978 128.171 172.402 128.275 169.819C128.327 168.58 128.335 167.34 128.342 166.109C128.342 165.69 128.335 165.257 127.976 164.944C127.439 164.466 126.834 164.1 126.117 163.958C125.58 163.854 125.528 163.891 125.595 164.451C125.968 167.803 126.252 171.163 126.483 174.522C126.565 175.754 126.662 176.994 126.909 178.211C126.976 178.554 126.998 178.935 127.297 179.248Z" fill="#303030"/>
<path d="M31.1677 111.937C31.0034 111.25 30.5405 110.802 29.9657 110.459C29.4655 110.153 28.8981 110.026 28.3232 109.914C27.0018 109.66 25.6579 109.578 24.3141 109.473C21.3726 109.242 18.4236 109.048 15.4821 108.809C14.2726 108.712 13.0706 108.547 11.906 108.182C11.0101 107.905 10.1963 107.487 9.49451 106.868C8.34478 105.86 7.98643 104.635 8.45677 103.157C9.00177 101.425 10.144 100.201 11.6447 99.2749C13.8695 97.8937 16.3108 97.1024 18.8715 96.6021C22.7015 95.8556 26.5688 95.7361 30.451 95.751C36.3639 95.7734 42.1797 96.5051 47.891 98.0356C49.2946 98.4089 50.6758 98.8419 51.9599 99.5437C52.5646 99.8722 53.1469 100.238 53.6621 100.693C55.7749 102.545 56.081 105.501 54.3564 107.734C53.5352 108.794 52.475 109.57 51.3178 110.227C49.6007 111.198 47.7193 111.728 45.8081 112.116C41.9035 112.915 37.9466 113.348 33.9599 113.527C33.8778 113.527 33.8031 113.535 33.721 113.535C33.3925 113.512 33.2432 113.617 33.3029 113.99C33.3701 114.43 33.3701 114.886 33.4149 115.326C33.6314 117.462 33.4447 119.597 33.3104 121.724C33.161 123.987 32.9893 126.249 32.8699 128.511C32.6011 133.7 32.631 138.896 32.5862 144.092C32.5862 144.331 32.5936 144.57 32.5563 144.801C32.4817 145.212 32.1457 145.481 31.7799 145.451C31.429 145.428 31.1826 145.182 31.1154 144.779C31.093 144.652 31.093 144.518 31.093 144.383C31.1527 139.269 31.0706 134.148 31.3319 129.034C31.4738 126.294 31.7052 123.561 31.8695 120.821C31.9964 118.581 32.0785 116.342 31.8023 114.102C31.7575 113.766 31.7276 113.505 31.2722 113.49C28.9802 113.445 26.6882 113.415 24.4111 113.841C22.052 114.289 20.1706 115.52 18.6401 117.327C16.908 119.38 15.6463 121.725 14.4817 124.121C12.4958 128.197 10.8831 132.445 9.00177 136.566C8.14321 138.463 7.32944 140.381 6.49327 142.285C6.29916 142.733 6.00053 142.897 5.64217 142.778C5.30621 142.666 5.11957 142.293 5.22409 141.86C5.29875 141.554 5.43313 141.262 5.54512 140.971C7.13533 136.895 9.00924 132.938 10.689 128.892C11.794 126.234 12.9885 123.621 14.3473 121.09C15.161 119.574 16.0793 118.133 17.1395 116.782C19.3941 113.885 22.3581 112.355 26.0088 112.079C27.5094 111.967 29.0101 111.892 30.5107 111.952C30.7197 112.012 30.9288 112.049 31.1677 111.937ZM29.9657 97.2666C24.9636 97.2591 22.3133 97.4756 18.6028 98.2073C16.4153 98.6403 14.3398 99.3869 12.4286 100.559C11.3535 101.223 10.4651 102.067 10.0022 103.284C9.51691 104.546 9.75582 105.3 10.8831 106.061C11.7566 106.651 12.7496 106.912 13.7649 107.077C16.0345 107.442 18.3265 107.51 20.6185 107.704C23.0598 107.905 25.5161 108.002 27.9499 108.323C30.1523 108.615 31.9665 109.421 32.7654 111.698C32.8624 111.967 33.0565 112.049 33.3178 112.034C33.5791 112.019 33.8479 112.019 34.1092 112.012C36.7222 111.944 39.3128 111.623 41.9035 111.28C44.076 110.989 46.2262 110.593 48.3091 109.906C50.0113 109.346 51.5642 108.532 52.8184 107.226C53.8935 106.099 54.2519 104.785 53.7218 103.291C53.3858 102.351 52.6691 101.731 51.8479 101.223C50.6534 100.477 49.3394 100.007 47.9881 99.6333C41.9781 97.9758 35.8487 97.2218 29.9657 97.2666Z" fill="#303030"/>
<path d="M55.2747 141.673C55.2897 142.128 55.0956 142.427 54.7671 142.524C54.4236 142.621 54.1026 142.487 53.9085 142.128C53.8264 141.972 53.7741 141.785 53.7293 141.606C52.0047 134.999 50.0263 128.466 48.3764 121.836C47.809 119.559 47.264 117.275 46.719 114.998C46.6966 114.893 46.6667 114.789 46.6592 114.684C46.6294 114.259 46.8085 113.96 47.1445 113.893C47.5103 113.818 47.7642 113.997 47.906 114.311C48.0031 114.527 48.0553 114.759 48.1151 114.99C49.6082 120.455 50.9446 125.965 52.5049 131.415C53.4158 134.61 54.2594 137.821 55.1329 141.023C55.1851 141.262 55.2299 141.494 55.2747 141.673Z" fill="#303030"/>
<path d="M127.387 13.1497C127.379 13.2393 127.364 13.3214 127.379 13.3886C127.775 15.255 127.835 17.1513 127.939 19.0476C128.073 21.5188 127.82 23.9452 127.424 26.3641C127.103 28.3201 126.334 30.1045 124.938 31.5677C124.811 31.7021 124.699 31.8589 124.55 31.9634C123.28 32.8519 121.944 33.5163 120.354 33.6358C117.905 33.8149 115.598 33.3446 113.336 32.4188C110.566 31.2766 108.005 29.776 105.572 28.0439C104.758 27.469 104.049 26.7523 103.272 26.0804C102.817 26.2969 102.436 26.6254 102.055 26.9539C101.017 27.8498 99.8827 28.6188 98.7852 29.4325C97.516 30.3732 96.2692 31.3363 94.9329 32.2023C93.9623 32.8295 92.9694 33.4342 92.0511 34.1434C91.842 34.3077 91.6106 34.4271 91.3269 34.4271C90.752 34.4271 90.4683 33.9792 90.7072 33.4566C90.8267 33.1953 91.0432 33.0609 91.2746 32.9265C92.8051 31.9933 94.246 30.9257 95.6421 29.8133C96.3812 29.2235 97.195 28.7308 97.9565 28.1634C99.2406 27.1928 100.45 26.1327 101.794 25.2442C101.898 25.1696 101.995 25.0725 102.085 24.9829C102.212 24.856 102.242 24.744 102.1 24.5798C101.503 23.8631 101.152 23.012 100.816 22.1459C100.286 20.7872 100.368 19.4508 100.876 18.1368C101.286 17.0692 101.921 16.136 102.727 15.3147C103.989 14.0157 105.482 13.0302 107.065 12.1866C108.364 11.4923 109.723 10.9174 111.066 10.3127C112.395 9.71541 113.791 9.34212 115.158 8.87924C115.897 8.62541 116.703 8.55075 117.502 8.74486C118.614 9.02109 119.092 9.84233 118.779 10.9473C118.472 12.0223 117.741 12.8361 117.069 13.6723C116.584 14.2919 116.009 14.8444 115.449 15.3894C113.933 16.8602 112.418 18.316 110.82 19.6972C109.028 21.2426 107.222 22.7805 105.415 24.3185C105.139 24.5574 104.825 24.759 104.511 24.9979C105.646 26.267 106.983 27.2376 108.401 28.0887C109.394 28.686 110.38 29.2907 111.417 29.8282C113.067 30.6719 114.769 31.3662 116.561 31.844C118.196 32.277 119.839 32.3293 121.481 31.8738C123.154 31.411 124.244 30.2986 124.998 28.7979C125.669 27.4616 125.983 26.0132 126.147 24.5424C126.446 21.8921 126.565 19.2417 126.229 16.5765C126.102 15.5835 126.08 14.5756 125.864 13.5976C125.767 13.1347 125.64 12.6793 125.543 12.2164C125.498 11.9775 125.341 11.8581 125.154 11.7461C123.997 11.0593 122.915 10.2679 121.825 9.47651C121.011 8.87924 120.272 8.19239 119.645 7.42342C118.286 5.73615 118.413 3.81744 120.085 2.27949C121.645 0.838598 123.467 0.248802 125.55 0.890859C127.222 1.406 128.417 2.45121 128.798 4.22806C128.984 5.11649 128.857 6.00492 128.604 6.88588C128.275 8.04308 127.685 9.06589 127.103 10.0962C126.707 10.7979 126.7 10.7979 127.409 11.2384C129.313 12.418 131.321 13.4259 133.292 14.4786C135.061 15.4193 136.853 16.3152 138.6 17.2932C141.915 19.1372 145.207 21.0335 148.515 22.885C151.688 24.6619 154.883 26.394 158.056 28.1783C159.639 29.0742 161.192 30.0223 162.737 30.9705C166.709 33.4193 170.755 35.7486 174.921 37.8539C177.885 39.3546 180.939 40.6685 184.127 41.6242C185.62 42.0721 185.582 42.2065 185.672 40.5118C185.754 38.9514 186.165 37.4508 187.173 36.2563C188.546 34.6213 190.838 34.4271 192.302 36.4205C194.504 39.4143 192.264 42.6619 189.89 43.3562C189.091 43.5877 188.307 43.7444 187.486 43.737C187.105 43.7295 186.971 43.8714 186.986 44.2446C187.038 45.6407 187.068 47.0368 187.105 48.4329C187.113 48.6196 187.143 48.7988 187.143 48.9854C187.165 51.9344 187.165 54.8909 187.217 57.8398C187.285 61.5055 187.292 65.1712 187.337 68.8295C187.352 70.121 187.344 71.4126 187.374 72.6967C187.419 74.8021 187.382 76.9149 187.509 79.0202C187.606 80.7075 187.538 82.3948 187.658 84.0746C187.785 85.7618 187.703 87.4491 187.815 89.1289C187.919 90.637 187.822 92.1302 187.815 93.6308C187.807 95.766 187.68 97.9012 187.673 100.029C187.673 101.925 187.509 103.822 187.523 105.71C187.546 107.637 187.367 109.555 187.367 111.474C187.367 112.9 187.21 114.311 187.18 115.729C187.105 118.552 186.814 121.359 186.59 124.166C186.426 126.264 186.045 128.347 185.605 130.415C185.351 131.609 185.09 131.452 186.426 131.818C188.673 132.43 190.838 133.252 192.809 134.513C193.653 135.051 194.459 135.648 195.251 136.26C196.46 137.201 197.64 138.172 198.722 139.254C199.581 140.105 200.394 141.024 200.85 142.173C201.186 143.024 200.969 143.368 200.081 143.599C198.73 143.95 197.348 144.137 195.967 144.338C192.279 144.868 188.569 145.033 184.866 145.301C184.291 145.346 183.708 145.354 183.126 145.369C180.834 145.436 178.542 145.54 176.25 145.593C174.481 145.63 172.726 145.488 170.964 145.451C168.127 145.391 165.365 144.809 162.573 144.45C162.155 144.398 161.744 144.286 161.363 144.092C161.02 143.92 160.886 143.599 160.975 143.233C161.065 142.883 161.304 142.696 161.662 142.688C161.871 142.688 162.088 142.711 162.289 142.756C165.611 143.54 169.001 143.853 172.398 144.002C176.086 144.159 179.774 144.01 183.462 143.778C183.992 143.749 184.515 143.719 185.045 143.711C187.18 143.696 189.308 143.48 191.428 143.278C193.683 143.062 195.952 142.965 198.185 142.532C198.483 142.472 198.789 142.405 199.155 142.323C198.819 141.71 198.461 141.195 198.02 140.747C195.698 138.336 193.093 136.305 190.099 134.79C188.636 134.051 187.09 133.528 185.508 133.11C185.037 132.99 184.925 133.17 184.784 133.535C184.239 134.939 183.604 136.29 182.693 137.507C181.648 138.888 180.409 140.038 178.968 140.994C177.691 141.837 176.258 142.173 174.809 142.36C173.324 142.554 171.883 142.143 170.681 141.285C169.509 140.441 168.881 139.239 169.232 137.709C169.419 136.902 169.718 136.148 170.225 135.491C171.024 134.461 171.95 133.61 173.107 132.953C175.757 131.437 178.617 130.922 181.618 130.997C182.171 131.012 182.723 131.102 183.268 131.154C183.88 131.214 183.888 131.214 184.044 130.586C184.373 129.28 184.574 127.958 184.724 126.615C184.91 124.86 185.231 123.113 185.314 121.351C185.433 118.828 185.739 116.312 185.747 113.781C185.747 112.467 185.948 111.146 185.926 109.832C185.896 107.622 186.15 105.412 186.06 103.202C186.038 102.545 186.127 101.888 186.15 101.223C186.217 98.6926 186.299 96.1617 186.329 93.6308C186.359 91.7046 186.404 89.7784 186.292 87.8597C186.202 86.1725 186.277 84.4852 186.142 82.8054C186.015 81.1704 186.083 79.5354 186 77.9078C185.821 74.4288 185.881 70.9497 185.821 67.4781C185.791 65.7386 185.874 63.9991 185.806 62.2596C185.672 58.7805 185.747 55.3015 185.65 51.8224C185.575 49.2393 185.657 46.6561 185.56 44.0804C185.545 43.6101 185.396 43.4458 184.963 43.3562C181.611 42.647 178.512 41.2583 175.429 39.81C172.323 38.3467 169.344 36.6594 166.388 34.9273C163.521 33.2475 160.699 31.5006 157.825 29.8357C155.406 28.4396 152.942 27.1181 150.501 25.7594C148.522 24.6544 146.544 23.5495 144.573 22.4296C140.795 20.2795 137.017 18.1219 133.15 16.1285C131.366 15.2102 129.611 14.2471 127.842 13.3214C127.693 13.2393 127.573 13.1273 127.387 13.1497ZM103.496 23.8257C103.645 23.7212 103.742 23.6764 103.817 23.6092C105.146 22.452 106.52 21.3471 107.871 20.2048C109.379 18.9282 110.828 17.5769 112.306 16.2778C113.478 15.2476 114.583 14.1575 115.606 12.9929C116.18 12.3434 116.733 11.664 117.129 10.8875C117.39 10.3799 117.285 10.2007 116.725 10.2305C116.039 10.2679 115.359 10.3873 114.71 10.6038C112.686 11.2832 110.73 12.1045 108.797 13.0228C106.818 13.956 105.042 15.158 103.526 16.7258C102.72 17.5694 102.13 18.5474 102.063 19.7942C101.995 21.3172 102.473 22.6237 103.496 23.8257ZM183.365 132.789C181.267 132.423 179.304 132.415 177.318 132.923C175.825 133.304 174.376 133.782 173.144 134.715C172.092 135.514 171.144 136.432 170.793 137.798C170.516 138.881 170.949 139.799 171.965 140.247C174.705 141.471 177.064 140.538 179.244 138.896C180.252 138.134 181.051 137.134 181.76 136.074C182.439 135.058 182.895 133.953 183.365 132.789ZM127.394 5.37033C127.312 4.01902 126.745 2.89915 125.438 2.39895C124.341 1.98086 123.325 2.17497 122.295 2.56319C121.414 2.89915 120.832 3.54868 120.428 4.39231C120.182 4.91491 120.197 5.42259 120.503 5.9004C120.802 6.36328 121.108 6.81869 121.511 7.20691C122.579 8.22972 123.788 9.06589 125.05 9.83486C125.386 10.0364 125.58 9.97671 125.744 9.66315C126.237 8.73739 126.812 7.84897 127.095 6.81869C127.237 6.34088 127.372 5.8556 127.394 5.37033ZM187.904 42.1094C188.083 42.087 188.375 42.0572 188.658 42.0273C189.898 41.9004 190.749 41.2061 191.324 40.1534C192.055 38.8245 191.488 37.1895 190.151 36.6146C189.808 36.4653 189.502 36.4728 189.158 36.6072C188.487 36.8759 188.158 37.4433 187.882 38.048C187.397 39.1157 187.195 40.2579 187.113 41.4226C187.068 42.0945 187.105 42.1244 187.904 42.1094Z" fill="#303030"/>
<path d="M103.063 42.7664C103.041 42.3558 103.16 42.1468 103.257 41.9377C104.706 38.8991 106.184 35.8755 107.819 32.934C107.893 32.7996 107.961 32.6503 108.05 32.5234C108.259 32.2247 108.543 32.1277 108.879 32.277C109.185 32.4114 109.394 32.8145 109.275 33.1281C109.073 33.6432 108.834 34.1434 108.58 34.6287C107.296 37.0775 106.154 39.586 104.959 42.0796C104.788 42.4305 104.653 42.8187 104.355 43.0874C104.116 43.3114 103.832 43.4383 103.489 43.304C103.16 43.177 103.078 42.9083 103.063 42.7664Z" fill="#303030"/>
<path d="M115.426 44.9315C115.65 41.8855 115.874 38.9664 116.479 36.0995C116.509 35.9726 116.516 35.8382 116.561 35.7113C116.711 35.2708 117.017 35.0618 117.375 35.1364C117.741 35.2186 117.92 35.5247 117.86 35.995C117.778 36.5923 117.629 37.1895 117.592 37.7943C117.442 40.1609 117.069 42.5052 116.964 44.8793C116.957 45.0361 116.964 45.2003 116.92 45.3496C116.808 45.7378 116.509 45.8872 116.136 45.8946C115.785 45.9021 115.494 45.6408 115.426 45.2675C115.404 45.1182 115.426 44.9614 115.426 44.9315Z" fill="#303030"/>
<path d="M67.0632 82.8129C66.2046 81.6482 65.2191 80.6254 64.047 79.7967C60.7845 77.4898 57.2606 75.7652 53.2888 75.0261C50.3772 74.4885 47.4804 74.3019 44.5912 75.1231C44.412 75.1754 44.2328 75.2276 44.0536 75.2351C43.7401 75.2426 43.4788 75.1007 43.3668 74.8021C43.2548 74.5034 43.3295 74.2272 43.5609 74.0032C43.7401 73.8315 43.9566 73.7494 44.188 73.6897C46.1665 73.1596 48.1673 72.9282 50.2204 73.0924C55.5659 73.5105 60.3738 75.3471 64.7339 78.4379C66.3017 79.5503 67.5634 80.9539 68.7281 82.4694C68.8102 82.574 68.8848 82.6859 68.9446 82.8054C69.3104 83.5296 69.0416 84.1343 68.2502 84.2911C67.5559 84.4255 66.8467 84.5151 66.1374 84.5972C63.1362 84.9406 60.1349 84.9033 57.1337 84.6271C54.3564 84.3732 51.6613 83.761 49.108 82.6486C45.7484 81.1853 42.9114 79.065 40.8583 75.9742C40.6866 75.7129 40.5223 75.5487 40.1714 75.5711C38.7156 75.6607 37.3046 75.9667 35.9085 76.3848C35.5725 76.4893 35.5725 76.7357 35.5501 76.997C35.4157 78.3334 35.2739 79.6698 35.1171 81.0061C35.0499 81.6109 34.9529 82.2081 34.8409 82.8054C34.7737 83.1712 34.8633 83.3205 35.2664 83.3504C36.8716 83.4624 38.4543 83.7386 40.0221 84.1194C40.6642 84.2762 41.2913 84.4703 41.896 84.739C44.0312 85.7021 45.1884 87.2998 45.1436 89.6889C45.1213 91.1447 44.8823 92.5781 44.6136 94.0041C44.1656 96.3857 43.7401 98.7747 43.0234 101.097C42.7695 101.903 42.4858 102.694 42.0453 103.426C41.2913 104.658 40.2088 105.434 38.7529 105.457C35.3261 105.509 31.8919 105.546 28.4875 105.009C27.8604 104.912 27.2556 104.74 26.6658 104.486C25.4862 103.986 24.7621 103.112 24.4933 101.858C24.2395 100.641 24.12 99.4093 23.9483 98.1849C23.5078 95.0269 23.0972 91.8614 22.9031 88.6735C22.8807 88.3077 22.8583 87.9344 22.8807 87.5686C22.9106 87.0908 23.1569 86.822 23.5302 86.8295C23.896 86.8295 24.1499 87.0833 24.1872 87.5686C24.2992 89.0692 24.4634 90.5623 24.6575 92.0555C25.0607 95.1165 25.434 98.1774 25.8894 101.223C26.0536 102.328 26.6509 102.978 27.6887 103.277C28.5547 103.53 29.4356 103.68 30.3315 103.754C32.855 103.978 35.3933 103.934 37.9242 103.986C38.0288 103.986 38.1333 103.978 38.2378 103.986C39.5891 104.016 40.4775 103.359 41.0151 102.157C41.6422 100.753 42.008 99.2674 42.329 97.7668C42.8143 95.4972 43.2996 93.2276 43.5534 90.9207C43.5982 90.525 43.6356 90.1293 43.6356 89.7411C43.6505 87.9643 42.889 86.8071 41.254 86.0978C40.2536 85.6648 39.1934 85.4707 38.1333 85.2467C37.0955 85.0302 36.0429 84.9555 34.9977 84.8137C34.5721 84.754 34.4527 84.9332 34.3705 85.299C34.266 85.8141 34.1242 86.3218 33.9674 86.8295C33.7583 87.4864 33.4224 88.0837 32.9595 88.6063C32.31 89.3529 31.5111 89.8158 30.5033 89.8979C29.57 89.98 28.6517 89.9054 27.7708 89.6217C26.9495 89.3529 26.2552 88.8825 25.8446 88.0837C25.2772 86.9862 25.5086 85.8066 26.4568 85.0153C27.0317 84.5375 27.6961 84.2164 28.3979 83.985C29.8089 83.5221 31.2424 83.1936 32.7355 83.2011C33.0715 83.2011 33.2731 83.1339 33.3328 82.7531C33.6016 80.9837 33.8479 79.2069 33.9823 77.4151C33.9898 77.3106 33.9748 77.2061 33.9599 77.0791C33.6165 77.012 33.3402 77.1911 33.0491 77.2807C30.9587 77.9377 28.8458 78.4752 26.6434 78.647C24.5978 78.8037 22.5895 78.5872 20.5812 78.2587C17.6248 77.766 14.7878 76.9149 12.0926 75.5785C9.77078 74.4288 7.76995 72.861 5.9707 71.0095C4.11172 69.0982 2.41699 67.0377 0.893967 64.8502C0.610267 64.4396 0.326568 64.0215 0.169786 63.5362C-0.113913 62.6702 0.274307 62.0431 1.18513 61.9833C5.00761 61.7519 8.83009 61.6399 12.6451 62.058C15.4373 62.3641 18.1549 62.9016 20.7679 63.9916C24.9114 65.7237 28.2561 68.374 30.6302 72.204C30.6974 72.316 30.7795 72.4205 30.8392 72.54C31.0333 72.9282 31.3021 73.0476 31.7426 72.9356C32.3548 72.7863 32.9819 72.6743 33.609 72.5922C34.042 72.54 34.1764 72.3384 34.1615 71.9128C34.0943 70.3375 33.7583 68.8369 33.0043 67.4334C32.2055 65.9626 31.1528 64.6785 30.0926 63.4018C27.8006 60.632 25.755 57.698 23.896 54.6221C21.7907 51.1281 20.529 47.3803 20.0437 43.3338C19.7227 40.6835 19.4539 38.0406 19.439 35.3678C19.439 35.1065 19.4166 34.8378 19.5062 34.5839C19.7077 34.0165 20.2453 33.8 20.7753 34.0837C20.9097 34.1584 21.0366 34.2629 21.1561 34.3599C24.9412 37.5478 27.7857 41.4151 29.6223 46.0215C30.6974 48.7092 31.3469 51.4939 31.7724 54.3458C31.8172 54.6594 31.8322 54.973 32.0188 55.3388C32.2577 54.301 32.4668 53.3305 32.7057 52.3674C34.0122 47.1563 36.2071 42.3782 39.6862 38.2347C41.351 36.2563 43.3071 34.6287 45.5617 33.3595C45.6961 33.2849 45.838 33.2028 45.9798 33.1356C46.7189 32.8071 47.2863 33.0236 47.5551 33.7851C47.8089 34.4869 47.8761 35.226 47.9881 35.9502C48.6974 40.6984 48.0329 45.2525 46.0022 49.6051C45.0018 51.7552 43.6505 53.659 42.0006 55.3612C40.8658 56.5408 39.6488 57.6308 38.4394 58.7357C37.3344 59.7511 36.2146 60.7589 35.2814 61.9535C35.0872 62.1998 34.923 62.4761 34.7289 62.7299C34.5497 62.9763 34.5646 63.1853 34.7289 63.4466C35.4605 64.6038 36.1698 65.776 36.894 66.9481C36.9462 67.0302 36.9835 67.1422 37.1403 67.1646C37.3568 67.0825 37.424 66.8361 37.5435 66.642C39.6787 63.1629 42.4112 60.2214 45.5767 57.6606C48.8691 54.9954 52.6692 53.4425 56.7903 52.6287C59.351 52.121 61.9491 51.8523 64.5397 51.5387C66.3241 51.3222 68.086 51.0161 69.8479 50.6876C70.0271 50.6503 70.2137 50.598 70.3929 50.598C71.1619 50.598 71.5352 51.2251 71.1619 51.8971C71.02 52.1509 70.8334 52.3749 70.6617 52.6063C69.945 53.5843 69.3029 54.6221 68.6982 55.6673C64.9504 62.155 59.4556 66.5225 52.4676 69.1057C47.906 70.793 43.1951 71.9352 38.4767 73.0551C37.7077 73.2343 36.9313 73.3985 36.1623 73.5777C35.7218 73.6822 35.4456 74.272 35.6397 74.6752C35.7293 74.8693 35.9085 74.8021 36.0578 74.7722C36.5431 74.6528 37.0283 74.5184 37.5136 74.4139C38.4916 74.1974 39.4921 74.1152 40.4925 74.048C41.0748 74.0032 41.5003 74.2048 41.8064 74.7274C43.0756 76.9298 44.9197 78.5648 47.04 79.9087C49.7874 81.6557 52.8259 82.574 56.0138 82.9995C59.5078 83.4624 63.0093 83.4997 66.5032 83.0294C66.6974 82.992 66.8691 83.0219 67.0632 82.8129ZM68.8176 52.4943C68.6086 52.3898 68.3996 52.4645 68.2054 52.5018C66.8019 52.7631 65.3908 52.9199 63.9798 53.1065C61.5012 53.435 59.0001 53.6739 56.5514 54.204C52.9753 54.9804 49.6604 56.3541 46.7712 58.6387C43.5758 61.1621 40.8508 64.1111 38.738 67.6051C38.5215 67.9634 38.3125 68.3367 38.0736 68.6801C37.4838 69.5387 36.767 69.5312 36.2146 68.6577C36.0877 68.4562 35.9757 68.2471 35.8488 68.0456C35.0201 66.7017 34.2137 65.3355 33.3402 64.014C32.8998 63.3496 32.8998 62.812 33.3253 62.1401C34.1764 60.8112 35.2291 59.6839 36.3639 58.6163C37.7077 57.3471 39.0964 56.1302 40.4029 54.8311C45.4124 49.8365 47.3311 43.7668 46.5845 36.7938C46.5099 36.1219 46.4875 35.435 46.2411 34.7855C45.935 34.7855 45.7334 34.9796 45.5169 35.114C43.8446 36.1517 42.3664 37.4135 41.0748 38.8991C37.7227 42.7664 35.6173 47.2608 34.2959 52.1658C33.6463 54.5623 33.2955 57.0186 32.8848 59.4599C32.84 59.7511 32.7803 60.0348 32.6459 60.2961C32.4891 60.6022 32.2353 60.7739 31.877 60.744C31.5559 60.7216 31.3394 60.535 31.2349 60.2363C31.1826 60.087 31.1453 59.9302 31.1154 59.7809C30.9587 58.8477 30.787 57.9145 30.6451 56.9738C30.2942 54.6519 29.9956 52.3226 29.3759 50.053C27.9649 44.9091 25.5236 40.3699 21.5219 36.7565C21.3801 36.6295 21.283 36.3832 20.9918 36.4802C20.9918 36.8461 20.9769 37.2119 20.9918 37.5777C21.1113 40.1086 21.4174 42.6246 21.8429 45.1181C22.2536 47.5296 23.0001 49.8216 24.1648 51.9792C25.3668 54.2115 26.6882 56.3691 28.1515 58.4371C29.6372 60.5275 31.317 62.4537 32.8699 64.4844C34.169 66.1791 35.1768 68.0157 35.4904 70.1658C35.5576 70.6063 35.58 71.0543 35.6322 71.5022C35.7069 72.1219 35.7144 72.1293 36.2967 72.0024C36.8865 71.8755 37.4763 71.7337 38.0661 71.5918C42.7845 70.4719 47.5028 69.3371 52.057 67.6424C57.3129 65.6789 61.7923 62.6403 65.2415 58.1683C66.5779 56.4288 67.6231 54.4952 68.7878 52.6436C68.8326 52.6138 68.8102 52.5541 68.8176 52.4943ZM1.90931 63.4018C1.95411 63.7751 2.12582 63.9468 2.2602 64.1335C3.65631 66.1194 5.20919 67.9858 6.87406 69.7477C9.27057 72.2861 12.1001 74.1451 15.385 75.3321C17.6546 76.1534 19.984 76.6685 22.3656 76.9746C24.5456 77.2583 26.7256 77.2509 28.8981 76.8104C30.451 76.4968 31.9591 76.0339 33.4597 75.5487C34.1391 75.3322 34.1391 75.3322 34.154 74.6229C34.154 74.4288 34.2361 74.2048 34.0346 74.0331C33.4149 74.1376 32.7952 74.2421 32.1756 74.3616C30.6152 74.6453 30.3913 74.5482 29.5178 73.1969C29.4207 73.0402 29.3237 72.8834 29.2191 72.7341C28.3456 71.4425 27.405 70.2106 26.2478 69.1505C23.6497 66.754 20.5738 65.2459 17.1992 64.3425C14.2577 63.5586 11.2266 63.3496 8.1955 63.2525C6.11255 63.1779 4.03706 63.357 1.90931 63.4018ZM29.8463 88.3898C31.093 88.5391 31.862 87.8373 32.3846 86.7548C32.6011 86.2994 32.7355 85.8141 32.84 85.3288C32.967 84.7465 32.9147 84.6793 32.3174 84.7017C30.8541 84.7614 29.458 85.1049 28.1217 85.7021C27.9052 85.7992 27.7036 85.9261 27.5169 86.0679C26.9197 86.5308 26.8823 87.158 27.4124 87.6955C27.6812 87.9643 28.0097 88.121 28.368 88.2256C28.8384 88.3525 29.3087 88.4122 29.8463 88.3898Z" fill="#303030"/>
</svg>
