<svg width="14" height="20" viewBox="0 0 14 20" fill="none" xmlns="http://www.w3.org/2000/svg">
<path d="M12.4118 0H1.64658C0.769825 0 0 0.777473 0 1.69774V18.8638C0 19.1719 0.0795375 19.4286 0.207725 19.627C0.361025 19.8641 0.607862 20 0.87255 19.9999C1.1228 19.9999 1.38924 19.8798 1.63529 19.6533L6.45164 15.2453C6.60039 15.1083 6.81406 15.0299 7.03622 15.0299C7.2583 15.0299 7.47154 15.1083 7.62072 15.2457L12.421 19.6526C12.6679 19.8798 12.916 20 13.1658 20C13.5882 20 14 19.6488 14 18.8639V1.69774C14 0.777473 13.2885 0 12.4118 0Z" fill="#242424"/>
</svg>
