<svg width="16" height="16" viewBox="0 0 16 16" fill="none" xmlns="http://www.w3.org/2000/svg">
<g clip-path="url(#clip0_511_538)">
<path d="M15.986 6.17982C15.9522 6.07615 15.8626 6.00054 15.7546 5.98479L10.5737 5.23186L8.25681 0.53728C8.2087 0.439333 8.10903 0.377472 8.0002 0.377472C7.89137 0.377472 7.79142 0.439333 7.74359 0.53728L5.42638 5.23214L0.2455 5.98508C0.137529 6.00083 0.0481738 6.07615 0.0140928 6.18011C-0.0194153 6.2835 0.00836492 6.39748 0.0865506 6.47338L3.83574 10.1278L2.9505 15.288C2.93217 15.3954 2.97627 15.504 3.06419 15.5681C3.15269 15.6328 3.26983 15.6412 3.36577 15.5899L8.0002 13.1538L12.6341 15.5899C12.6759 15.6119 12.722 15.6228 12.7675 15.6228C12.8268 15.6228 12.8858 15.6045 12.9359 15.5681C13.0241 15.504 13.0682 15.3954 13.0496 15.288L12.1647 10.1281L15.9139 6.47338C15.9918 6.39691 16.0198 6.28321 15.986 6.17982Z" fill="#F2C94C"/>
</g>
<defs>
<clipPath id="clip0_511_538">
<rect width="16" height="16" fill="white"/>
</clipPath>
</defs>
</svg>
